<?xml version="1.0" encoding="UTF-8"?>
<svg id="_图层_2" data-name="图层 2" xmlns="http://www.w3.org/2000/svg" viewBox="0 0 62.77 71.94">
  <defs>
    <style>
      .cls-1 {
        fill: #3d3a39;
      }

      .cls-1, .cls-2, .cls-3 {
        stroke-width: 0px;
      }

      .cls-2 {
        fill: #b3b3b3;
      }

      .cls-3 {
        fill: #5cbca5;
      }
    </style>
  </defs>
  <g id="_图层_1-2" data-name="图层 1">
    <g>
      <g>
        <path class="cls-3" d="M62.77,26.72l-21.16-12.22v5.11l7.33,4.23c.63.32,1.04.96,1.08,1.67.04.71-.32,1.39-.93,1.77l-.04.03s-.04.02-.06.04l-5.36,3.1,19.14,11.06v-14.77Z"/>
        <polygon class="cls-3" points="22.93 18.49 29.28 14.82 29.28 7.39 16.49 0 16.49 14.77 22.93 18.49"/>
      </g>
      <g>
        <polygon class="cls-1" points="0 61.96 12.79 54.58 12.79 47.15 6.44 43.48 0 47.2 0 61.96"/>
        <path class="cls-1" d="M4.42,30.41v-8.57c0-.7.37-1.35.98-1.71.61-.35,1.36-.36,1.97,0l.04.02,5.38,3.11V1.14L0,8.53v24.43l4.42-2.55Z"/>
      </g>
      <g>
        <path class="cls-2" d="M2.17,64.55l12.79,7.39,21.17-12.22-4.42-2.55-7.36,4.25c-.61.38-1.38.41-2.01.06-.63-.35-1.02-1.01-1.02-1.73v-6.25l-19.15,11.05Z"/>
        <polygon class="cls-2" points="42.01 41.55 42.01 48.89 48.45 52.61 61.24 45.22 48.44 37.83 42.01 41.55"/>
      </g>
    </g>
  </g>
</svg>